# xmcd
#
# Track frame offsets: 
#        150
#        9740
#        21000
#        30940
#        42230
#        54460
#        66740
#        79348
#        96255
#        110490
#        118878
#        129250
#        138575
#        149850
#        175088
#
# Disc length: 2542 seconds
#
# Revision: 3
# Processed by: cddbd v1.5.2PL0 Copyright (c) Steve Scherf et al.
# Submitted via: ExactAudioCopy v1.0b1
#
DISCID=da09ec0f
DTITLE=Various Artist - Classic Country Vol. 23 Great Country Gospel II Disc 
DTITLE=2
DYEAR=2001
DGENRE=Country
TTITLE0=Buck Owens And The Buckaroos - Pray Every Day
TTITLE1=Louvin Brothers - This Little Light Of Mine
TTITLE2=Jimmy Dean - Just A Little Talk With Jesus
TTITLE3=Ernest Tubb - If We Never Meet Again
TTITLE4=Loretta Lynn - I'd Rather Have Jesus
TTITLE5=George Hamilton IV - Life's Railway To Heaven
TTITLE6=Andy Griffith - Take My Hand Precious Lord
TTITLE7=Red Foley - When The Saints Go Marching In
TTITLE8=Stanley Brothers - Rank Strangers To Me
TTITLE9=Statesmen Quartet - You've Got To Walk That Lonesome Road
TTITLE10=Marty Robbins - Have Thine Own Way Lord
TTITLE11=Tennessee Ernie Ford - Shall We Gather At The River
TTITLE12=Oak Ridge Boys - Lord I've Been Ready For Years
TTITLE13=Willie Nelson - Whispering Hope
TTITLE14=Charlie Rich - Old Time Religion
EXTD=
EXTT0=
EXTT1=
EXTT2=
EXTT3=
EXTT4=
EXTT5=
EXTT6=
EXTT7=
EXTT8=
EXTT9=
EXTT10=
EXTT11=
EXTT12=
EXTT13=
EXTT14=
PLAYORDER=
